<svg xmlns="http://www.w3.org/2000/svg" viewBox="0 0 700 500">
  <defs>
    <linearGradient id="archBg" x1="0%" y1="0%" x2="100%" y2="100%">
      <stop offset="0%" style="stop-color:#1e1e2e;stop-opacity:1" />
      <stop offset="100%" style="stop-color:#2d2d3d;stop-opacity:1" />
    </linearGradient>
    <marker id="arrow" markerWidth="10" markerHeight="7" refX="9" refY="3.5" orient="auto">
      <polygon points="0 0, 10 3.5, 0 7" fill="#6b7280"/>
    </marker>
  </defs>
  
  <!-- Background -->
  <rect width="700" height="500" fill="url(#archBg)" rx="15"/>
  
  <!-- Title -->
  <text x="350" y="35" fill="#ffffff" text-anchor="middle" font-size="20" font-weight="bold"><× Architecture</text>
  
  <!-- Main App Box -->
  <rect x="250" y="60" width="200" height="60" fill="#1e293b" stroke="#4ade80" stroke-width="2" rx="8"/>
  <text x="350" y="85" fill="#4ade80" text-anchor="middle" font-size="14" font-weight="bold">=¥ main.rs</text>
  <text x="350" y="105" fill="#9ca3af" text-anchor="middle" font-size="10">Entry point + Window</text>
  
  <!-- Arrow down -->
  <line x1="350" y1="120" x2="350" y2="150" stroke="#6b7280" stroke-width="2" marker-end="url(#arrow)"/>
  
  <!-- App Module -->
  <rect x="200" y="155" width="300" height="180" fill="#0f172a" stroke="#60a5fa" stroke-width="2" rx="8"/>
  <text x="350" y="175" fill="#60a5fa" text-anchor="middle" font-size="14" font-weight="bold">=æ app/</text>
  
  <!-- State -->
  <rect x="220" y="190" width="120" height="50" fill="#1e293b" stroke="#f472b6" stroke-width="1" rx="5"/>
  <text x="280" y="210" fill="#f472b6" text-anchor="middle" font-size="11" font-weight="bold">state.rs</text>
  <text x="280" y="228" fill="#9ca3af" text-anchor="middle" font-size="9">AppState + Worker</text>
  
  <!-- History -->
  <rect x="360" y="190" width="120" height="50" fill="#1e293b" stroke="#fbbf24" stroke-width="1" rx="5"/>
  <text x="420" y="210" fill="#fbbf24" text-anchor="middle" font-size="11" font-weight="bold">history.rs</text>
  <text x="420" y="228" fill="#9ca3af" text-anchor="middle" font-size="9">Undo/Redo</text>
  
  <!-- UI -->
  <rect x="220" y="255" width="260" height="65" fill="#1e293b" stroke="#a78bfa" stroke-width="1" rx="5"/>
  <text x="350" y="275" fill="#a78bfa" text-anchor="middle" font-size="11" font-weight="bold">ui/</text>
  <text x="350" y="295" fill="#9ca3af" text-anchor="middle" font-size="9">top_bar | side_panel | candidates</text>
  <text x="350" y="310" fill="#9ca3af" text-anchor="middle" font-size="9">visualizations | advanced_viz</text>
  
  <!-- Bottom modules -->
  <!-- Chemistry -->
  <rect x="50" y="380" width="150" height="100" fill="#0f172a" stroke="#4ade80" stroke-width="2" rx="8"/>
  <text x="125" y="400" fill="#4ade80" text-anchor="middle" font-size="12" font-weight="bold">>ê chemistry/</text>
  <text x="125" y="420" fill="#9ca3af" text-anchor="middle" font-size="9">descriptors.rs</text>
  <text x="125" y="435" fill="#9ca3af" text-anchor="middle" font-size="9">smiles.rs</text>
  <text x="125" y="450" fill="#9ca3af" text-anchor="middle" font-size="9">scaffolds.rs</text>
  <text x="125" y="465" fill="#9ca3af" text-anchor="middle" font-size="9">druglikeness.rs</text>
  
  <!-- Generation -->
  <rect x="220" y="380" width="150" height="100" fill="#0f172a" stroke="#60a5fa" stroke-width="2" rx="8"/>
  <text x="295" y="400" fill="#60a5fa" text-anchor="middle" font-size="12" font-weight="bold">>ì generation/</text>
  <text x="295" y="430" fill="#9ca3af" text-anchor="middle" font-size="9">generator.rs</text>
  <text x="295" y="450" fill="#9ca3af" text-anchor="middle" font-size="9">Parallel generation</text>
  <text x="295" y="470" fill="#9ca3af" text-anchor="middle" font-size="9">Scaffold mixing</text>
  
  <!-- Optimization -->
  <rect x="390" y="380" width="150" height="100" fill="#0f172a" stroke="#f472b6" stroke-width="2" rx="8"/>
  <text x="465" y="400" fill="#f472b6" text-anchor="middle" font-size="12" font-weight="bold">=Ê optimization/</text>
  <text x="465" y="430" fill="#9ca3af" text-anchor="middle" font-size="9">pareto.rs</text>
  <text x="465" y="450" fill="#9ca3af" text-anchor="middle" font-size="9">objectives.rs</text>
  <text x="465" y="470" fill="#9ca3af" text-anchor="middle" font-size="9">Multi-objective</text>
  
  <!-- Similarity -->
  <rect x="560" y="380" width="120" height="100" fill="#0f172a" stroke="#fbbf24" stroke-width="2" rx="8"/>
  <text x="620" y="400" fill="#fbbf24" text-anchor="middle" font-size="12" font-weight="bold">=, similarity/</text>
  <text x="620" y="430" fill="#9ca3af" text-anchor="middle" font-size="9">Fingerprints</text>
  <text x="620" y="450" fill="#9ca3af" text-anchor="middle" font-size="9">Tanimoto</text>
  <text x="620" y="470" fill="#9ca3af" text-anchor="middle" font-size="9">Clustering</text>
  
  <!-- Arrows to bottom modules -->
  <line x1="280" y1="335" x2="140" y2="375" stroke="#6b7280" stroke-width="1.5" marker-end="url(#arrow)"/>
  <line x1="320" y1="335" x2="295" y2="375" stroke="#6b7280" stroke-width="1.5" marker-end="url(#arrow)"/>
  <line x1="380" y1="335" x2="450" y2="375" stroke="#6b7280" stroke-width="1.5" marker-end="url(#arrow)"/>
  <line x1="420" y1="335" x2="600" y2="375" stroke="#6b7280" stroke-width="1.5" marker-end="url(#arrow)"/>
</svg>
