<svg xmlns="http://www.w3.org/2000/svg" viewBox="0 0 800 400">
  <defs>
    <linearGradient id="rulesBg" x1="0%" y1="0%" x2="100%" y2="100%">
      <stop offset="0%" style="stop-color:#1e1e2e;stop-opacity:1" />
      <stop offset="100%" style="stop-color:#2d2d3d;stop-opacity:1" />
    </linearGradient>
  </defs>
  
  <!-- Background -->
  <rect width="800" height="400" fill="url(#rulesBg)" rx="15"/>
  
  <!-- Title -->
  <text x="400" y="30" fill="#ffffff" text-anchor="middle" font-size="20" font-weight="bold">Drug-likeness Rules</text>
  
  <!-- Lipinski's Rule of Five -->
  <g transform="translate(100, 80)">
    <rect x="-80" y="-40" width="160" height="140" fill="#1e293b" stroke="#4ade80" stroke-width="2" rx="8"/>
    <text x="0" y="-15" fill="#4ade80" text-anchor="middle" font-size="14" font-weight="bold">Lipinski's Ro5</text>
    
    <!-- Criteria -->
    <text x="-70" y="10" fill="#9ca3af" font-size="10">MW d 500</text>
    <circle cx="-50" cy="10" r="5" fill="#4ade80"/>
    
    <text x="-70" y="30" fill="#9ca3af" font-size="10">LogP d 5</text>
    <circle cx="-50" cy="30" r="5" fill="#4ade80"/>
    
    <text x="-70" y="50" fill="#9ca3af" font-size="10">HBD d 5</text>
    <circle cx="-50" cy="50" r="5" fill="#4ade80"/>
    
    <text x="-70" y="70" fill="#9ca3af" font-size="10">HBA d 10</text>
    <circle cx="-50" cy="70" r="5" fill="#4ade80"/>
    
    <text x="0" y="95" fill="#4ade80" text-anchor="middle" font-size="11">3/4 to pass</text>
  </g>
  
  <!-- Veber Rules -->
  <g transform="translate(400, 80)">
    <rect x="-80" y="-40" width="160" height="140" fill="#1e293b" stroke="#60a5fa" stroke-width="2" rx="8"/>
    <text x="0" y="-15" fill="#60a5fa" text-anchor="middle" font-size="14" font-weight="bold">Veber Rules</text>
    
    <text x="-70" y="10" fill="#9ca3af" font-size="10">RotBonds d 10</text>
    <circle cx="-50" cy="10" r="5" fill="#60a5fa"/>
    
    <text x="-70" y="30" fill="#9ca3af" font-size="10">PSA d 140 r</text>
    <circle cx="-50" cy="30" r="5" fill="#60a5fa"/>
    
    <text x="0" y="60" fill="#60a5fa" text-anchor="middle" font-size="11">Oral bioavailability</text>
    <text x="0" y="75" fill="#9ca3af" text-anchor="middle" font-size="10">Both required</text>
  </g>
  
  <!-- PAINS Alerts -->
  <g transform="translate(700, 80)">
    <rect x="-80" y="-40" width="160" height="140" fill="#1e293b" stroke="#f472b6" stroke-width="2" rx="8"/>
    <text x="0" y="-15" fill="#f472b6" text-anchor="middle" font-size="14" font-weight="bold">PAINS</text>
    
    <text x="-70" y="10" fill="#9ca3af" font-size="10">20+ patterns</text>
    <circle cx="-50" cy="10" r="5" fill="#f472b6"/>
    
    <text x="-70" y="30" fill="#9ca3af" font-size="10">High/Med/Low</text>
    <circle cx="-50" cy="30" r="5" fill="#fbbf24"/>
    
    <text x="-70" y="50" fill="#9ca3af" font-size="10">Toxicity alerts</text>
    <circle cx="-50" cy="50" r="5" fill="#f472b6"/>
    
    <text x="0" y="75" fill="#f472b6" text-anchor="middle" font-size="11">Avoid false positives</text>
  </g>
  
  <!-- Example molecule -->
  <g transform="translate(400, 250)">
    <rect x="-150" y="-30" width="300" height="80" fill="#0f172a" stroke="#4ade80" stroke-width="2" rx="8"/>
    <text x="0" y="-5" fill="#4ade80" text-anchor="middle" font-size="12" font-weight="bold">Example: Aspirin</text>
    <text x="0" y="15" fill="#9ca3af" text-anchor="middle" font-size="10" font-family="monospace">CC(=O)Oc1ccccc1C(=O)O</text>
    
    <text x="-140" y="40" fill="#4ade80" font-size="10">MW: 180 </text>
    <text x="-50" y="40" fill="#4ade80" font-size="10">LogP: 1.2 </text>
    <text x="40" y="40" fill="#4ade80" font-size="10">HBD: 1 </text>
    <text x="130" y="40" fill="#4ade80" font-size="10">HBA: 4 </text>
    
    <text x="0" y="60" fill="#4ade80" text-anchor="middle" font-size="11" font-weight="bold">Passes all rules</text>
  </g>
</svg>
