<svg xmlns="http://www.w3.org/2000/svg" viewBox="0 0 700 300">
  <defs>
    <linearGradient id="descBg" x1="0%" y1="0%" x2="100%" y2="100%">
      <stop offset="0%" style="stop-color:#1e1e2e;stop-opacity:1" />
      <stop offset="100%" style="stop-color:#2d2d3d;stop-opacity:1" />
    </linearGradient>
  </defs>
  
  <!-- Background -->
  <rect width="700" height="300" fill="url(#descBg)" rx="15"/>
  
  <!-- Title -->
  <text x="350" y="30" fill="#ffffff" text-anchor="middle" font-size="18" font-weight="bold">Molecular Descriptors</text>
  
  <!-- Molecule structure -->
  <g transform="translate(100, 80)">
    <!-- Benzene ring -->
    <polygon points="0,-30 26,-15 26,15 0,30 -26,15 -26,-15" stroke="#60a5fa" stroke-width="2" fill="none"/>
    <circle r="15" stroke="#60a5fa" stroke-width="2" fill="none"/>
    <!-- Carbonyl group -->
    <line x1="26" y1="0" x2="50" y2="0" stroke="#4ade80" stroke-width="2"/>
    <line x1="50" y1="-8" x2="50" y2="8" stroke="#4ade80" stroke-width="2"/>
    <line x1="50" y1="0" x2="70" y2="0" stroke="#4ade80" stroke-width="2"/>
    <text x="70" y="5" fill="#4ade80" font-size="12">OH</text>
  </g>
  
  <!-- Descriptors list -->
  <g transform="translate(350, 70)">
    <rect x="0" y="0" width="320" height="200" fill="#1e293b" stroke="#4ade80" stroke-width="2" rx="8"/>
    
    <!-- MW -->
    <circle cx="20" cy="30" r="8" fill="#4ade80"/>
    <text x="35" y="35" fill="#ffffff" font-size="12" font-weight="bold">MW: 122.12 Da</text>
    <text x="35" y="50" fill="#9ca3af" font-size="10">Sum of atomic masses</text>
    
    <!-- LogP -->
    <circle cx="20" cy="70" r="8" fill="#60a5fa"/>
    <text x="35" y="75" fill="#ffffff" font-size="12" font-weight="bold">LogP: 1.87</text>
    <text x="35" y="90" fill="#9ca3af" font-size="10">Partition coefficient</text>
    
    <!-- PSA -->
    <circle cx="20" cy="110" r="8" fill="#f472b6"/>
    <text x="35" y="115" fill="#ffffff" font-size="12" font-weight="bold">PSA: 37.3 r</text>
    <text x="35" y="130" fill="#9ca3af" font-size="10">Polar surface area</text>
    
    <!-- HBD/HBA -->
    <circle cx="20" cy="150" r="8" fill="#fbbf24"/>
    <text x="35" y="155" fill="#ffffff" font-size="12" font-weight="bold">HBD: 1, HBA: 4</text>
    <text x="35" y="170" fill="#9ca3af" font-size="10">H-bond donors/acceptors</text>
    
    <!-- Rotatable bonds -->
    <circle cx="20" cy="190" r="8" fill="#a78bfa"/>
    <text x="35" y="195" fill="#ffffff" font-size="12" font-weight="bold">RotBonds: 1</text>
    <text x="35" y="210" fill="#9ca3af" font-size="10">Flexible bonds</text>
  </g>
  
  <!-- Arrow -->
  <path d="M280 150 L330 150" stroke="#fbbf24" stroke-width="3" marker-end="url(#arrowDesc)"/>
  <defs>
    <marker id="arrowDesc" markerWidth="10" markerHeight="7" refX="9" refY="3.5" orient="auto">
      <polygon points="0 0, 10 3.5, 0 7" fill="#fbbf24"/>
    </marker>
  </defs>
  
  <!-- Labels -->
  <text x="100" y="250" fill="#60a5fa" text-anchor="middle" font-size="11">SMILES Input</text>
  <text x="510" y="250" fill="#4ade80" text-anchor="middle" font-size="11">Calculated Properties</text>
</svg>
