<svg xmlns="http://www.w3.org/2000/svg" viewBox="0 0 500 400">
  <defs>
    <linearGradient id="bgGrad" x1="0%" y1="0%" x2="100%" y2="100%">
      <stop offset="0%" style="stop-color:#1e1e2e;stop-opacity:1" />
      <stop offset="100%" style="stop-color:#2d2d3d;stop-opacity:1" />
    </linearGradient>
    <marker id="arrow" markerWidth="10" markerHeight="10" refX="9" refY="3" orient="auto">
      <polygon points="0 0, 10 3, 0 6" fill="#9ca3af"/>
    </marker>
  </defs>
  
  <!-- Background -->
  <rect width="500" height="400" fill="url(#bgGrad)" rx="10"/>
  
  <!-- Title -->
  <text x="250" y="30" fill="#ffffff" text-anchor="middle" font-size="18" font-weight="bold">Pareto Front Analysis</text>
  
  <!-- Grid -->
  <g stroke="#3f3f5f" stroke-width="1" opacity="0.5">
    <line x1="80" y1="320" x2="460" y2="320"/>
    <line x1="80" y1="60" x2="80" y2="320"/>
    <line x1="80" y1="190" x2="460" y2="190" stroke-dasharray="5,5"/>
    <line x1="270" y1="60" x2="270" y2="320" stroke-dasharray="5,5"/>
  </g>
  
  <!-- Axis labels -->
  <text x="270" y="350" fill="#9ca3af" text-anchor="middle" font-size="14" font-weight="bold">Toxicity (Minimize)</text>
  <path d="M460 320 L470 320" stroke="#9ca3af" stroke-width="2" marker-end="url(#arrow)"/>
  
  <text x="35" y="190" fill="#9ca3af" text-anchor="middle" font-size="14" font-weight="bold" transform="rotate(-90, 35, 190)">Efficacy (Maximize)</text>
  <path d="M80 60 L80 50" stroke="#9ca3af" stroke-width="2" marker-end="url(#arrow)"/>
  
  <!-- Non-Pareto points (gray, dominated) -->
  <circle cx="150" cy="240" r="5" fill="#6b7280" opacity="0.6"/>
  <circle cx="180" cy="220" r="5" fill="#6b7280" opacity="0.6"/>
  <circle cx="200" cy="260" r="5" fill="#6b7280" opacity="0.6"/>
  <circle cx="250" cy="230" r="5" fill="#6b7280" opacity="0.6"/>
  <circle cx="280" cy="200" r="5" fill="#6b7280" opacity="0.6"/>
  <circle cx="300" cy="250" r="5" fill="#6b7280" opacity="0.6"/>
  <circle cx="170" cy="280" r="5" fill="#6b7280" opacity="0.6"/>
  <circle cx="220" cy="290" r="5" fill="#6b7280" opacity="0.6"/>
  <circle cx="320" cy="220" r="5" fill="#6b7280" opacity="0.6"/>
  <circle cx="260" cy="270" r="5" fill="#6b7280" opacity="0.6"/>
  <circle cx="340" cy="240" r="5" fill="#6b7280" opacity="0.6"/>
  <circle cx="290" cy="280" r="5" fill="#6b7280" opacity="0.6"/>
  <circle cx="310" cy="300" r="5" fill="#6b7280" opacity="0.6"/>
  <circle cx="360" cy="250" r="5" fill="#6b7280" opacity="0.6"/>
  
  <!-- Pareto front curve (optimal trade-off) -->
  <path d="M100 100 Q180 120 250 140 Q320 160 400 200" stroke="#4ade80" stroke-width="3" fill="none"/>
  
  <!-- Pareto optimal points (green, highlighted) -->
  <circle cx="100" cy="100" r="7" fill="#4ade80" stroke="#ffffff" stroke-width="2">
    <animate attributeName="r" values="7;9;7" dur="2s" repeatCount="indefinite"/>
  </circle>
  <circle cx="150" cy="110" r="7" fill="#4ade80" stroke="#ffffff" stroke-width="2">
    <animate attributeName="r" values="7;9;7" dur="2s" repeatCount="indefinite" begin="0.3s"/>
  </circle>
  <circle cx="200" cy="125" r="7" fill="#4ade80" stroke="#ffffff" stroke-width="2">
    <animate attributeName="r" values="7;9;7" dur="2s" repeatCount="indefinite" begin="0.6s"/>
  </circle>
  <circle cx="250" cy="140" r="7" fill="#4ade80" stroke="#ffffff" stroke-width="2">
    <animate attributeName="r" values="7;9;7" dur="2s" repeatCount="indefinite" begin="0.9s"/>
  </circle>
  <circle cx="300" cy="160" r="7" fill="#4ade80" stroke="#ffffff" stroke-width="2">
    <animate attributeName="r" values="7;9;7" dur="2s" repeatCount="indefinite" begin="1.2s"/>
  </circle>
  <circle cx="350" cy="180" r="7" fill="#4ade80" stroke="#ffffff" stroke-width="2">
    <animate attributeName="r" values="7;9;7" dur="2s" repeatCount="indefinite" begin="1.5s"/>
  </circle>
  <circle cx="400" cy="200" r="7" fill="#4ade80" stroke="#ffffff" stroke-width="2">
    <animate attributeName="r" values="7;9;7" dur="2s" repeatCount="indefinite" begin="1.8s"/>
  </circle>
  
  <!-- Shaded region (dominated area) -->
  <path d="M100 100 Q180 120 250 140 Q320 160 400 200 L400 320 L100 320 Z" fill="#6b7280" opacity="0.1"/>
  
  <!-- Legend -->
  <rect x="320" y="60" width="130" height="60" fill="#1e293b" stroke="#3f3f5f" rx="5" opacity="0.9"/>
  <circle cx="335" cy="80" r="6" fill="#4ade80" stroke="#ffffff" stroke-width="1"/>
  <text x="345" y="84" fill="#ffffff" font-size="12" font-weight="bold">Pareto optimal</text>
  <text x="345" y="98" fill="#9ca3af" font-size="10">Non-dominated</text>
  <circle cx="335" cy="110" r="5" fill="#6b7280" opacity="0.6"/>
  <text x="345" y="114" fill="#9ca3af" font-size="12">Dominated</text>
  
  <!-- Info text -->
  <text x="250" y="375" fill="#60a5fa" text-anchor="middle" font-size="11" font-style="italic">Optimal trade-offs: No candidate is better in all objectives</text>
</svg>
