<svg xmlns="http://www.w3.org/2000/svg" viewBox="0 0 1000 350">
  <defs>
    <linearGradient id="simBg" x1="0%" y1="0%" x2="100%" y2="100%">
      <stop offset="0%" style="stop-color:#1e1e2e;stop-opacity:1" />
      <stop offset="100%" style="stop-color:#2d2d3d;stop-opacity:1" />
    </linearGradient>
  </defs>
  
  <!-- Background -->
  <rect width="1000" height="350" fill="url(#simBg)" rx="15"/>
  
  <!-- Title -->
  <text x="500" y="30" fill="#ffffff" text-anchor="middle" font-size="18" font-weight="bold">Similarity Analysis</text>
  
  <!-- Tanimoto Coefficient -->
  <g transform="translate(300, 80)">
    <rect x="-150" y="-40" width="300" height="120" fill="#1e293b" stroke="#4ade80" stroke-width="2" rx="8"/>
    <text x="0" y="-15" fill="#4ade80" text-anchor="middle" font-size="14" font-weight="bold">Tanimoto Coefficient</text>
    
    <text x="-140" y="10" fill="#9ca3af" font-size="10">Fingerprint: 2048 bits</text>
    <text x="-140" y="30" fill="#9ca3af" font-size="10">Features: Atoms, pairs, paths</text>
    <text x="-140" y="50" fill="#9ca3af" font-size="10">Range: 0.0 - 1.0</text>
    
    <!-- Similarity bar -->
    <rect x="-140" y="60" width="280" height="15" fill="#3f3f5f" rx="7"/>
    <rect x="-140" y="60" width="210" height="15" fill="#4ade80" rx="7"/>
    <text x="0" y="72" fill="#ffffff" text-anchor="middle" font-size="10" font-weight="bold">0.75 similarity</text>
  </g>
  
  <!-- Example molecules -->
  <g transform="translate(300, 220)">
    <rect x="-150" y="-30" width="300" height="80" fill="#0f172a" stroke="#60a5fa" stroke-width="2" rx="8"/>
    <text x="0" y="-5" fill="#60a5fa" text-anchor="middle" font-size="12" font-weight="bold">Example Comparison</text>
    
    <text x="-140" y="20" fill="#4ade80" font-size="10" font-family="monospace">CCO (ethanol)</text>
    <text x="140" y="20" fill="#4ade80" text-anchor="end" font-size="10" font-family="monospace">CCCO (propanol)</text>
    
    <line x1="-140" y1="30" x2="140" y2="30" stroke="#fbbf24" stroke-width="2" stroke-dasharray="5,5"/>
    
    <text x="0" y="50" fill="#fbbf24" text-anchor="middle" font-size="12" font-weight="bold">Similarity: 0.75</text>
  </g>
  
  <!-- Clustering -->
  <g transform="translate(700, 80)">
    <rect x="-150" y="-40" width="300" height="200" fill="#1e293b" stroke="#f472b6" stroke-width="2" rx="8"/>
    <text x="0" y="-15" fill="#f472b6" text-anchor="middle" font-size="14" font-weight="bold">Clustering</text>
    
    <text x="-140" y="10" fill="#9ca3af" font-size="10">Algorithm: Leader</text>
    <text x="-140" y="30" fill="#9ca3af" font-size="10">Threshold: 0.5 (configurable)</text>
    <text x="-140" y="50" fill="#9ca3af" font-size="10">Max: 200 molecules</text>
    
    <!-- Cluster visualization -->
    <g transform="translate(0, 70)">
      <!-- Cluster 1 -->
      <circle cx="-60" cy="0" r="25" fill="#4ade80" opacity="0.3" stroke="#4ade80" stroke-width="2"/>
      <circle cx="-60" cy="0" r="5" fill="#4ade80"/>
      <circle cx="-75" cy="-10" r="4" fill="#4ade80"/>
      <circle cx="-45" cy="-10" r="4" fill="#4ade80"/>
      <circle cx="-75" cy="10" r="4" fill="#4ade80"/>
      <text x="-60" y="40" fill="#4ade80" text-anchor="middle" font-size="9">Cluster 1</text>
      
      <!-- Cluster 2 -->
      <circle cx="60" cy="0" r="25" fill="#60a5fa" opacity="0.3" stroke="#60a5fa" stroke-width="2"/>
      <circle cx="60" cy="0" r="5" fill="#60a5fa"/>
      <circle cx="75" cy="-10" r="4" fill="#60a5fa"/>
      <circle cx="45" cy="-10" r="4" fill="#60a5fa"/>
      <circle cx="75" cy="10" r="4" fill="#60a5fa"/>
      <text x="60" y="40" fill="#60a5fa" text-anchor="middle" font-size="9">Cluster 2</text>
    </g>
    
    <text x="0" y="140" fill="#f472b6" text-anchor="middle" font-size="11">Identifies similar groups</text>
  </g>
</svg>
