<svg xmlns="http://www.w3.org/2000/svg" viewBox="0 0 700 250">
  <defs>
    <linearGradient id="smilesBg" x1="0%" y1="0%" x2="100%" y2="100%">
      <stop offset="0%" style="stop-color:#1e1e2e;stop-opacity:1" />
      <stop offset="100%" style="stop-color:#2d2d3d;stop-opacity:1" />
    </linearGradient>
  </defs>
  
  <!-- Background -->
  <rect width="700" height="250" fill="url(#smilesBg)" rx="15"/>
  
  <!-- Title -->
  <text x="350" y="30" fill="#ffffff" text-anchor="middle" font-size="18" font-weight="bold">SMILES Generation Strategies</text>
  
  <!-- Strategy 1: Scaffold-based -->
  <g transform="translate(120, 100)">
    <rect x="-80" y="-30" width="160" height="100" fill="#1e293b" stroke="#4ade80" stroke-width="2" rx="8"/>
    <text x="0" y="-5" fill="#4ade80" text-anchor="middle" font-size="12" font-weight="bold">Scaffold-based</text>
    <text x="0" y="15" fill="#9ca3af" text-anchor="middle" font-size="10">60%</text>
    
    <!-- Pill icon -->
    <rect x="-20" y="25" width="40" height="15" rx="7" fill="#4ade80"/>
    <rect x="0" y="25" width="20" height="15" rx="0" fill="#60a5fa"/>
    
    <text x="0" y="55" fill="#9ca3af" text-anchor="middle" font-size="9">Real drug templates</text>
  </g>
  
  <!-- Strategy 2: Hybrid -->
  <g transform="translate(350, 100)">
    <rect x="-80" y="-30" width="160" height="100" fill="#1e293b" stroke="#60a5fa" stroke-width="2" rx="8"/>
    <text x="0" y="-5" fill="#60a5fa" text-anchor="middle" font-size="12" font-weight="bold">Hybrid</text>
    <text x="0" y="15" fill="#9ca3af" text-anchor="middle" font-size="10">12%</text>
    
    <!-- Linker visualization -->
    <circle cx="-20" cy="30" r="8" fill="#4ade80"/>
    <line x1="-10" y1="30" x2="10" y2="30" stroke="#fbbf24" stroke-width="2"/>
    <circle cx="20" cy="30" r="8" fill="#60a5fa"/>
    
    <text x="0" y="55" fill="#9ca3af" text-anchor="middle" font-size="9">Fragment combination</text>
  </g>
  
  <!-- Strategy 3: Random -->
  <g transform="translate(580, 100)">
    <rect x="-80" y="-30" width="160" height="100" fill="#1e293b" stroke="#f472b6" stroke-width="2" rx="8"/>
    <text x="0" y="-5" fill="#f472b6" text-anchor="middle" font-size="12" font-weight="bold">Random</text>
    <text x="0" y="15" fill="#9ca3af" text-anchor="middle" font-size="10">28%</text>
    
    <!-- Random structure -->
    <circle cx="-15" cy="25" r="6" fill="#f472b6"/>
    <line x1="-9" y1="25" x2="9" y2="25" stroke="#f472b6" stroke-width="2"/>
    <circle cx="15" cy="25" r="6" fill="#f472b6"/>
    <line x1="0" y1="19" x2="0" y2="31" stroke="#f472b6" stroke-width="2"/>
    
    <text x="0" y="55" fill="#9ca3af" text-anchor="middle" font-size="9">Novel architectures</text>
  </g>
  
  <!-- Validation box -->
  <g transform="translate(350, 200)">
    <rect x="-120" y="-15" width="240" height="30" fill="#0f172a" stroke="#fbbf24" stroke-width="2" rx="5"/>
    <text x="0" y="5" fill="#fbbf24" text-anchor="middle" font-size="11" font-weight="bold">Validation: Balanced brackets, ring closures, valence rules</text>
  </g>
</svg>
